<mxfile host="app.diagrams.net" modified="2024-03-24T20:41:34.266Z" agent="Mozilla/5.0 (Windows NT 10.0; Win64; x64) AppleWebKit/537.36 (KHTML, like Gecko) Chrome/122.0.0.0 Safari/537.36" etag="-mwxWvoS1de5BODuQblr" version="23.1.5" type="device">
  <diagram name="Страница — 1" id="IfM_RwkMtPBLUJ0l-AS_">
    <mxGraphModel dx="1434" dy="818" grid="0" gridSize="10" guides="1" tooltips="1" connect="1" arrows="1" fold="1" page="0" pageScale="1" pageWidth="1169" pageHeight="827" background="none" math="0" shadow="0">
      <root>
        <mxCell id="0" />
        <mxCell id="1" parent="0" />
        <mxCell id="R-D8Z9JG-TbI6bDEDyGc-46" value="Student" style="swimlane;fontStyle=1;align=center;verticalAlign=top;childLayout=stackLayout;horizontal=1;startSize=26;horizontalStack=0;resizeParent=1;resizeParentMax=0;resizeLast=0;collapsible=1;marginBottom=0;whiteSpace=wrap;html=1;fillColor=#b0e3e6;strokeColor=#0e8088;rounded=0;" vertex="1" parent="1">
          <mxGeometry x="690" y="232" width="160" height="90" as="geometry" />
        </mxCell>
        <mxCell id="R-D8Z9JG-TbI6bDEDyGc-47" value="- group" style="text;strokeColor=none;fillColor=none;align=left;verticalAlign=top;spacingLeft=4;spacingRight=4;overflow=hidden;rotatable=0;points=[[0,0.5],[1,0.5]];portConstraint=eastwest;whiteSpace=wrap;html=1;rounded=0;" vertex="1" parent="R-D8Z9JG-TbI6bDEDyGc-46">
          <mxGeometry y="26" width="160" height="27" as="geometry" />
        </mxCell>
        <mxCell id="R-D8Z9JG-TbI6bDEDyGc-48" value="" style="line;strokeWidth=1;fillColor=none;align=left;verticalAlign=middle;spacingTop=-1;spacingLeft=3;spacingRight=3;rotatable=0;labelPosition=right;points=[];portConstraint=eastwest;strokeColor=inherit;rounded=0;" vertex="1" parent="R-D8Z9JG-TbI6bDEDyGc-46">
          <mxGeometry y="53" width="160" height="8" as="geometry" />
        </mxCell>
        <mxCell id="R-D8Z9JG-TbI6bDEDyGc-49" value="+ getGroup()" style="text;strokeColor=none;fillColor=none;align=left;verticalAlign=top;spacingLeft=4;spacingRight=4;overflow=hidden;rotatable=0;points=[[0,0.5],[1,0.5]];portConstraint=eastwest;whiteSpace=wrap;html=1;rounded=0;" vertex="1" parent="R-D8Z9JG-TbI6bDEDyGc-46">
          <mxGeometry y="61" width="160" height="29" as="geometry" />
        </mxCell>
        <mxCell id="R-D8Z9JG-TbI6bDEDyGc-50" value="Teacher" style="swimlane;fontStyle=1;align=center;verticalAlign=top;childLayout=stackLayout;horizontal=1;startSize=26;horizontalStack=0;resizeParent=1;resizeParentMax=0;resizeLast=0;collapsible=1;marginBottom=0;whiteSpace=wrap;html=1;fillColor=#b0e3e6;strokeColor=#0e8088;rounded=0;" vertex="1" parent="1">
          <mxGeometry x="979" y="232" width="160" height="90" as="geometry" />
        </mxCell>
        <mxCell id="R-D8Z9JG-TbI6bDEDyGc-51" value="- chair" style="text;strokeColor=none;fillColor=none;align=left;verticalAlign=top;spacingLeft=4;spacingRight=4;overflow=hidden;rotatable=0;points=[[0,0.5],[1,0.5]];portConstraint=eastwest;whiteSpace=wrap;html=1;rounded=0;" vertex="1" parent="R-D8Z9JG-TbI6bDEDyGc-50">
          <mxGeometry y="26" width="160" height="26" as="geometry" />
        </mxCell>
        <mxCell id="R-D8Z9JG-TbI6bDEDyGc-52" value="" style="line;strokeWidth=1;fillColor=none;align=left;verticalAlign=middle;spacingTop=-1;spacingLeft=3;spacingRight=3;rotatable=0;labelPosition=right;points=[];portConstraint=eastwest;strokeColor=inherit;rounded=0;" vertex="1" parent="R-D8Z9JG-TbI6bDEDyGc-50">
          <mxGeometry y="52" width="160" height="8" as="geometry" />
        </mxCell>
        <mxCell id="R-D8Z9JG-TbI6bDEDyGc-53" value="+ getChair():Chair" style="text;strokeColor=none;fillColor=none;align=left;verticalAlign=top;spacingLeft=4;spacingRight=4;overflow=hidden;rotatable=0;points=[[0,0.5],[1,0.5]];portConstraint=eastwest;whiteSpace=wrap;html=1;rounded=0;" vertex="1" parent="R-D8Z9JG-TbI6bDEDyGc-50">
          <mxGeometry y="60" width="160" height="30" as="geometry" />
        </mxCell>
        <mxCell id="R-D8Z9JG-TbI6bDEDyGc-65" value="&lt;i&gt;AbstractPeople&lt;/i&gt;" style="swimlane;fontStyle=1;align=center;verticalAlign=top;childLayout=stackLayout;horizontal=1;startSize=26;horizontalStack=0;resizeParent=1;resizeParentMax=0;resizeLast=0;collapsible=1;marginBottom=0;whiteSpace=wrap;html=1;fillColor=#f8cecc;strokeColor=#b85450;rounded=0;" vertex="1" parent="1">
          <mxGeometry x="692" y="440.5" width="160" height="157" as="geometry" />
        </mxCell>
        <mxCell id="R-D8Z9JG-TbI6bDEDyGc-66" value="- name&lt;br&gt;- patronymic&lt;br&gt;- lastname&lt;br&gt;- books:Arraylist&amp;lt;Book&amp;gt;" style="text;strokeColor=none;fillColor=none;align=left;verticalAlign=top;spacingLeft=4;spacingRight=4;overflow=hidden;rotatable=0;points=[[0,0.5],[1,0.5]];portConstraint=eastwest;whiteSpace=wrap;html=1;rounded=0;" vertex="1" parent="R-D8Z9JG-TbI6bDEDyGc-65">
          <mxGeometry y="26" width="160" height="71" as="geometry" />
        </mxCell>
        <mxCell id="R-D8Z9JG-TbI6bDEDyGc-67" value="" style="line;strokeWidth=1;fillColor=none;align=left;verticalAlign=middle;spacingTop=-1;spacingLeft=3;spacingRight=3;rotatable=0;labelPosition=right;points=[];portConstraint=eastwest;strokeColor=inherit;rounded=0;" vertex="1" parent="R-D8Z9JG-TbI6bDEDyGc-65">
          <mxGeometry y="97" width="160" height="8" as="geometry" />
        </mxCell>
        <mxCell id="R-D8Z9JG-TbI6bDEDyGc-68" value="+ getFullName()&lt;br&gt;+ addBook():book&lt;br&gt;&amp;nbsp;" style="text;strokeColor=none;fillColor=none;align=left;verticalAlign=top;spacingLeft=4;spacingRight=4;overflow=hidden;rotatable=0;points=[[0,0.5],[1,0.5]];portConstraint=eastwest;whiteSpace=wrap;html=1;rounded=0;" vertex="1" parent="R-D8Z9JG-TbI6bDEDyGc-65">
          <mxGeometry y="105" width="160" height="52" as="geometry" />
        </mxCell>
        <mxCell id="R-D8Z9JG-TbI6bDEDyGc-69" value="Сhair" style="swimlane;fontStyle=1;align=center;verticalAlign=top;childLayout=stackLayout;horizontal=1;startSize=26;horizontalStack=0;resizeParent=1;resizeParentMax=0;resizeLast=0;collapsible=1;marginBottom=0;whiteSpace=wrap;html=1;fillColor=#bac8d3;strokeColor=#23445d;rounded=0;" vertex="1" parent="1">
          <mxGeometry x="979" y="448" width="160" height="115" as="geometry" />
        </mxCell>
        <mxCell id="R-D8Z9JG-TbI6bDEDyGc-70" value="- name&lt;br&gt;- number" style="text;strokeColor=none;fillColor=none;align=left;verticalAlign=top;spacingLeft=4;spacingRight=4;overflow=hidden;rotatable=0;points=[[0,0.5],[1,0.5]];portConstraint=eastwest;whiteSpace=wrap;html=1;rounded=0;" vertex="1" parent="R-D8Z9JG-TbI6bDEDyGc-69">
          <mxGeometry y="26" width="160" height="39" as="geometry" />
        </mxCell>
        <mxCell id="R-D8Z9JG-TbI6bDEDyGc-71" value="" style="line;strokeWidth=1;fillColor=none;align=left;verticalAlign=middle;spacingTop=-1;spacingLeft=3;spacingRight=3;rotatable=0;labelPosition=right;points=[];portConstraint=eastwest;strokeColor=inherit;rounded=0;" vertex="1" parent="R-D8Z9JG-TbI6bDEDyGc-69">
          <mxGeometry y="65" width="160" height="8" as="geometry" />
        </mxCell>
        <mxCell id="R-D8Z9JG-TbI6bDEDyGc-72" value="+ getName():String&lt;br&gt;+ getNumber():int&lt;div&gt;&lt;br/&gt;&lt;/div&gt;" style="text;strokeColor=none;fillColor=none;align=left;verticalAlign=top;spacingLeft=4;spacingRight=4;overflow=hidden;rotatable=0;points=[[0,0.5],[1,0.5]];portConstraint=eastwest;whiteSpace=wrap;html=1;rounded=0;" vertex="1" parent="R-D8Z9JG-TbI6bDEDyGc-69">
          <mxGeometry y="73" width="160" height="42" as="geometry" />
        </mxCell>
        <mxCell id="R-D8Z9JG-TbI6bDEDyGc-73" value="EducBookRU" style="swimlane;fontStyle=1;align=center;verticalAlign=top;childLayout=stackLayout;horizontal=1;startSize=26;horizontalStack=0;resizeParent=1;resizeParentMax=0;resizeLast=0;collapsible=1;marginBottom=0;whiteSpace=wrap;html=1;fillColor=#b0e3e6;strokeColor=#0e8088;rounded=0;" vertex="1" parent="1">
          <mxGeometry x="120" y="8" width="160" height="120" as="geometry" />
        </mxCell>
        <mxCell id="R-D8Z9JG-TbI6bDEDyGc-74" value="- kind&lt;br&gt;- lang = &quot;RU&quot;&lt;div&gt;&lt;br/&gt;&lt;/div&gt;" style="text;strokeColor=none;fillColor=none;align=left;verticalAlign=top;spacingLeft=4;spacingRight=4;overflow=hidden;rotatable=0;points=[[0,0.5],[1,0.5]];portConstraint=eastwest;whiteSpace=wrap;html=1;rounded=0;" vertex="1" parent="R-D8Z9JG-TbI6bDEDyGc-73">
          <mxGeometry y="26" width="160" height="44" as="geometry" />
        </mxCell>
        <mxCell id="R-D8Z9JG-TbI6bDEDyGc-75" value="" style="line;strokeWidth=1;fillColor=none;align=left;verticalAlign=middle;spacingTop=-1;spacingLeft=3;spacingRight=3;rotatable=0;labelPosition=right;points=[];portConstraint=eastwest;strokeColor=inherit;rounded=0;" vertex="1" parent="R-D8Z9JG-TbI6bDEDyGc-73">
          <mxGeometry y="70" width="160" height="8" as="geometry" />
        </mxCell>
        <mxCell id="R-D8Z9JG-TbI6bDEDyGc-76" value="+ getKind():String&lt;br&gt;+ setKind()" style="text;strokeColor=none;fillColor=none;align=left;verticalAlign=top;spacingLeft=4;spacingRight=4;overflow=hidden;rotatable=0;points=[[0,0.5],[1,0.5]];portConstraint=eastwest;whiteSpace=wrap;html=1;rounded=0;" vertex="1" parent="R-D8Z9JG-TbI6bDEDyGc-73">
          <mxGeometry y="78" width="160" height="42" as="geometry" />
        </mxCell>
        <mxCell id="R-D8Z9JG-TbI6bDEDyGc-77" value="FictionBookRU" style="swimlane;fontStyle=1;align=center;verticalAlign=top;childLayout=stackLayout;horizontal=1;startSize=26;horizontalStack=0;resizeParent=1;resizeParentMax=0;resizeLast=0;collapsible=1;marginBottom=0;whiteSpace=wrap;html=1;fillColor=#b0e3e6;strokeColor=#0e8088;rounded=0;" vertex="1" parent="1">
          <mxGeometry x="340" y="17" width="160" height="68" as="geometry" />
        </mxCell>
        <mxCell id="R-D8Z9JG-TbI6bDEDyGc-78" value="- lang = &quot;RU&quot;" style="text;strokeColor=none;fillColor=none;align=left;verticalAlign=top;spacingLeft=4;spacingRight=4;overflow=hidden;rotatable=0;points=[[0,0.5],[1,0.5]];portConstraint=eastwest;whiteSpace=wrap;html=1;rounded=0;" vertex="1" parent="R-D8Z9JG-TbI6bDEDyGc-77">
          <mxGeometry y="26" width="160" height="34" as="geometry" />
        </mxCell>
        <mxCell id="R-D8Z9JG-TbI6bDEDyGc-79" value="" style="line;strokeWidth=1;fillColor=none;align=left;verticalAlign=middle;spacingTop=-1;spacingLeft=3;spacingRight=3;rotatable=0;labelPosition=right;points=[];portConstraint=eastwest;strokeColor=inherit;rounded=0;" vertex="1" parent="R-D8Z9JG-TbI6bDEDyGc-77">
          <mxGeometry y="60" width="160" height="8" as="geometry" />
        </mxCell>
        <mxCell id="R-D8Z9JG-TbI6bDEDyGc-126" value="&lt;i style=&quot;border-color: var(--border-color);&quot;&gt;Abstract&lt;/i&gt;&lt;i&gt;Book&lt;/i&gt;" style="swimlane;fontStyle=1;align=center;verticalAlign=top;childLayout=stackLayout;horizontal=1;startSize=26;horizontalStack=0;resizeParent=1;resizeParentMax=0;resizeLast=0;collapsible=1;marginBottom=0;whiteSpace=wrap;html=1;fillColor=#f8cecc;strokeColor=#b85450;rounded=0;" vertex="1" parent="1">
          <mxGeometry x="190" y="370" width="160" height="136" as="geometry" />
        </mxCell>
        <mxCell id="R-D8Z9JG-TbI6bDEDyGc-127" value="- author&lt;br&gt;- name&lt;br&gt;- lang" style="text;strokeColor=none;fillColor=none;align=left;verticalAlign=top;spacingLeft=4;spacingRight=4;overflow=hidden;rotatable=0;points=[[0,0.5],[1,0.5]];portConstraint=eastwest;whiteSpace=wrap;html=1;rounded=0;" vertex="1" parent="R-D8Z9JG-TbI6bDEDyGc-126">
          <mxGeometry y="26" width="160" height="50" as="geometry" />
        </mxCell>
        <mxCell id="R-D8Z9JG-TbI6bDEDyGc-128" value="" style="line;strokeWidth=1;fillColor=none;align=left;verticalAlign=middle;spacingTop=-1;spacingLeft=3;spacingRight=3;rotatable=0;labelPosition=right;points=[];portConstraint=eastwest;strokeColor=inherit;rounded=0;" vertex="1" parent="R-D8Z9JG-TbI6bDEDyGc-126">
          <mxGeometry y="76" width="160" height="8" as="geometry" />
        </mxCell>
        <mxCell id="R-D8Z9JG-TbI6bDEDyGc-129" value="+ getLang():String&lt;br&gt;+ getAuthor():String&lt;br&gt;+ getName():String&lt;div&gt;&lt;br/&gt;&lt;/div&gt;" style="text;strokeColor=none;fillColor=none;align=left;verticalAlign=top;spacingLeft=4;spacingRight=4;overflow=hidden;rotatable=0;points=[[0,0.5],[1,0.5]];portConstraint=eastwest;whiteSpace=wrap;html=1;rounded=0;" vertex="1" parent="R-D8Z9JG-TbI6bDEDyGc-126">
          <mxGeometry y="84" width="160" height="52" as="geometry" />
        </mxCell>
        <mxCell id="R-D8Z9JG-TbI6bDEDyGc-130" value="EducBookENG" style="swimlane;fontStyle=1;align=center;verticalAlign=top;childLayout=stackLayout;horizontal=1;startSize=26;horizontalStack=0;resizeParent=1;resizeParentMax=0;resizeLast=0;collapsible=1;marginBottom=0;whiteSpace=wrap;html=1;fillColor=#b0e3e6;strokeColor=#0e8088;rounded=0;" vertex="1" parent="1">
          <mxGeometry x="10" y="160" width="160" height="120" as="geometry" />
        </mxCell>
        <mxCell id="R-D8Z9JG-TbI6bDEDyGc-131" value="- university&lt;br&gt;- level&lt;br&gt;- lang = &quot;ENG&quot;" style="text;strokeColor=none;fillColor=none;align=left;verticalAlign=top;spacingLeft=4;spacingRight=4;overflow=hidden;rotatable=0;points=[[0,0.5],[1,0.5]];portConstraint=eastwest;whiteSpace=wrap;html=1;rounded=0;" vertex="1" parent="R-D8Z9JG-TbI6bDEDyGc-130">
          <mxGeometry y="26" width="160" height="44" as="geometry" />
        </mxCell>
        <mxCell id="R-D8Z9JG-TbI6bDEDyGc-132" value="" style="line;strokeWidth=1;fillColor=none;align=left;verticalAlign=middle;spacingTop=-1;spacingLeft=3;spacingRight=3;rotatable=0;labelPosition=right;points=[];portConstraint=eastwest;strokeColor=inherit;rounded=0;" vertex="1" parent="R-D8Z9JG-TbI6bDEDyGc-130">
          <mxGeometry y="70" width="160" height="8" as="geometry" />
        </mxCell>
        <mxCell id="R-D8Z9JG-TbI6bDEDyGc-133" value="+ getUniversity():String&lt;br&gt;+ getLevel():String&lt;br&gt;&lt;br&gt;&lt;div&gt;&lt;br&gt;&lt;/div&gt;" style="text;strokeColor=none;fillColor=none;align=left;verticalAlign=top;spacingLeft=4;spacingRight=4;overflow=hidden;rotatable=0;points=[[0,0.5],[1,0.5]];portConstraint=eastwest;whiteSpace=wrap;html=1;rounded=0;" vertex="1" parent="R-D8Z9JG-TbI6bDEDyGc-130">
          <mxGeometry y="78" width="160" height="42" as="geometry" />
        </mxCell>
        <mxCell id="R-D8Z9JG-TbI6bDEDyGc-134" value="FictionBookENG" style="swimlane;fontStyle=1;align=center;verticalAlign=top;childLayout=stackLayout;horizontal=1;startSize=26;horizontalStack=0;resizeParent=1;resizeParentMax=0;resizeLast=0;collapsible=1;marginBottom=0;whiteSpace=wrap;html=1;fillColor=#b0e3e6;strokeColor=#0e8088;rounded=0;" vertex="1" parent="1">
          <mxGeometry x="410" y="186" width="160" height="110" as="geometry" />
        </mxCell>
        <mxCell id="R-D8Z9JG-TbI6bDEDyGc-135" value="- country&lt;br&gt;- lang = &quot;ENG&quot;" style="text;strokeColor=none;fillColor=none;align=left;verticalAlign=top;spacingLeft=4;spacingRight=4;overflow=hidden;rotatable=0;points=[[0,0.5],[1,0.5]];portConstraint=eastwest;whiteSpace=wrap;html=1;rounded=0;" vertex="1" parent="R-D8Z9JG-TbI6bDEDyGc-134">
          <mxGeometry y="26" width="160" height="34" as="geometry" />
        </mxCell>
        <mxCell id="R-D8Z9JG-TbI6bDEDyGc-136" value="" style="line;strokeWidth=1;fillColor=none;align=left;verticalAlign=middle;spacingTop=-1;spacingLeft=3;spacingRight=3;rotatable=0;labelPosition=right;points=[];portConstraint=eastwest;strokeColor=inherit;rounded=0;" vertex="1" parent="R-D8Z9JG-TbI6bDEDyGc-134">
          <mxGeometry y="60" width="160" height="8" as="geometry" />
        </mxCell>
        <mxCell id="R-D8Z9JG-TbI6bDEDyGc-137" value="+ getCountry():String&lt;br&gt;+ setCounty()" style="text;strokeColor=none;fillColor=none;align=left;verticalAlign=top;spacingLeft=4;spacingRight=4;overflow=hidden;rotatable=0;points=[[0,0.5],[1,0.5]];portConstraint=eastwest;whiteSpace=wrap;html=1;rounded=0;" vertex="1" parent="R-D8Z9JG-TbI6bDEDyGc-134">
          <mxGeometry y="68" width="160" height="42" as="geometry" />
        </mxCell>
        <mxCell id="R-D8Z9JG-TbI6bDEDyGc-138" value="PeopleFactory" style="swimlane;fontStyle=1;align=center;verticalAlign=top;childLayout=stackLayout;horizontal=1;startSize=26;horizontalStack=0;resizeParent=1;resizeParentMax=0;resizeLast=0;collapsible=1;marginBottom=0;whiteSpace=wrap;html=1;fillColor=#ffe6cc;strokeColor=#d79b00;rounded=0;" vertex="1" parent="1">
          <mxGeometry x="870" y="68" width="160" height="60" as="geometry" />
        </mxCell>
        <mxCell id="R-D8Z9JG-TbI6bDEDyGc-140" value="" style="line;strokeWidth=1;fillColor=none;align=left;verticalAlign=middle;spacingTop=-1;spacingLeft=3;spacingRight=3;rotatable=0;labelPosition=right;points=[];portConstraint=eastwest;strokeColor=inherit;rounded=0;" vertex="1" parent="R-D8Z9JG-TbI6bDEDyGc-138">
          <mxGeometry y="26" width="160" height="8" as="geometry" />
        </mxCell>
        <mxCell id="R-D8Z9JG-TbI6bDEDyGc-141" value="+ createPeople()" style="text;strokeColor=none;fillColor=none;align=left;verticalAlign=top;spacingLeft=4;spacingRight=4;overflow=hidden;rotatable=0;points=[[0,0.5],[1,0.5]];portConstraint=eastwest;whiteSpace=wrap;html=1;rounded=0;" vertex="1" parent="R-D8Z9JG-TbI6bDEDyGc-138">
          <mxGeometry y="34" width="160" height="26" as="geometry" />
        </mxCell>
        <mxCell id="R-D8Z9JG-TbI6bDEDyGc-142" value="BookFactory" style="swimlane;fontStyle=1;align=center;verticalAlign=top;childLayout=stackLayout;horizontal=1;startSize=26;horizontalStack=0;resizeParent=1;resizeParentMax=0;resizeLast=0;collapsible=1;marginBottom=0;whiteSpace=wrap;html=1;fillColor=#ffe6cc;strokeColor=#d79b00;rounded=0;" vertex="1" parent="1">
          <mxGeometry x="190" y="620" width="160" height="60" as="geometry" />
        </mxCell>
        <mxCell id="R-D8Z9JG-TbI6bDEDyGc-144" value="" style="line;strokeWidth=1;fillColor=none;align=left;verticalAlign=middle;spacingTop=-1;spacingLeft=3;spacingRight=3;rotatable=0;labelPosition=right;points=[];portConstraint=eastwest;strokeColor=inherit;rounded=0;" vertex="1" parent="R-D8Z9JG-TbI6bDEDyGc-142">
          <mxGeometry y="26" width="160" height="8" as="geometry" />
        </mxCell>
        <mxCell id="R-D8Z9JG-TbI6bDEDyGc-145" value="+ create book()" style="text;strokeColor=none;fillColor=none;align=left;verticalAlign=top;spacingLeft=4;spacingRight=4;overflow=hidden;rotatable=0;points=[[0,0.5],[1,0.5]];portConstraint=eastwest;whiteSpace=wrap;html=1;rounded=0;" vertex="1" parent="R-D8Z9JG-TbI6bDEDyGc-142">
          <mxGeometry y="34" width="160" height="26" as="geometry" />
        </mxCell>
        <mxCell id="R-D8Z9JG-TbI6bDEDyGc-162" style="edgeStyle=orthogonalEdgeStyle;rounded=0;orthogonalLoop=1;jettySize=auto;html=1;exitX=0.5;exitY=0;exitDx=0;exitDy=0;endArrow=none;endFill=0;" edge="1" parent="1" source="R-D8Z9JG-TbI6bDEDyGc-146" target="R-D8Z9JG-TbI6bDEDyGc-69">
          <mxGeometry relative="1" as="geometry" />
        </mxCell>
        <mxCell id="R-D8Z9JG-TbI6bDEDyGc-146" value="StorageChair" style="swimlane;fontStyle=1;align=center;verticalAlign=top;childLayout=stackLayout;horizontal=1;startSize=26;horizontalStack=0;resizeParent=1;resizeParentMax=0;resizeLast=0;collapsible=1;marginBottom=0;whiteSpace=wrap;html=1;fillColor=#bac8d3;strokeColor=#23445d;rounded=0;" vertex="1" parent="1">
          <mxGeometry x="979" y="635" width="160" height="87" as="geometry" />
        </mxCell>
        <mxCell id="R-D8Z9JG-TbI6bDEDyGc-147" value="+ ArrayList:Chairs" style="text;strokeColor=none;fillColor=none;align=left;verticalAlign=top;spacingLeft=4;spacingRight=4;overflow=hidden;rotatable=0;points=[[0,0.5],[1,0.5]];portConstraint=eastwest;whiteSpace=wrap;html=1;rounded=0;" vertex="1" parent="R-D8Z9JG-TbI6bDEDyGc-146">
          <mxGeometry y="26" width="160" height="26" as="geometry" />
        </mxCell>
        <mxCell id="R-D8Z9JG-TbI6bDEDyGc-148" value="" style="line;strokeWidth=1;fillColor=none;align=left;verticalAlign=middle;spacingTop=-1;spacingLeft=3;spacingRight=3;rotatable=0;labelPosition=right;points=[];portConstraint=eastwest;strokeColor=inherit;rounded=0;" vertex="1" parent="R-D8Z9JG-TbI6bDEDyGc-146">
          <mxGeometry y="52" width="160" height="8" as="geometry" />
        </mxCell>
        <mxCell id="R-D8Z9JG-TbI6bDEDyGc-149" value="+ addAllChari():String" style="text;strokeColor=none;fillColor=none;align=left;verticalAlign=top;spacingLeft=4;spacingRight=4;overflow=hidden;rotatable=0;points=[[0,0.5],[1,0.5]];portConstraint=eastwest;whiteSpace=wrap;html=1;rounded=0;" vertex="1" parent="R-D8Z9JG-TbI6bDEDyGc-146">
          <mxGeometry y="60" width="160" height="27" as="geometry" />
        </mxCell>
        <mxCell id="R-D8Z9JG-TbI6bDEDyGc-151" style="edgeStyle=orthogonalEdgeStyle;rounded=0;orthogonalLoop=1;jettySize=auto;html=1;endArrow=none;endFill=0;" edge="1" parent="1" source="R-D8Z9JG-TbI6bDEDyGc-69" target="R-D8Z9JG-TbI6bDEDyGc-50">
          <mxGeometry relative="1" as="geometry">
            <mxPoint x="820" y="400" as="targetPoint" />
          </mxGeometry>
        </mxCell>
        <mxCell id="R-D8Z9JG-TbI6bDEDyGc-152" value="Instantiate" style="endArrow=open;endSize=12;dashed=1;html=1;rounded=0;" edge="1" parent="1" source="R-D8Z9JG-TbI6bDEDyGc-141" target="R-D8Z9JG-TbI6bDEDyGc-50">
          <mxGeometry width="160" relative="1" as="geometry">
            <mxPoint x="860" y="180" as="sourcePoint" />
            <mxPoint x="950" y="250" as="targetPoint" />
          </mxGeometry>
        </mxCell>
        <mxCell id="R-D8Z9JG-TbI6bDEDyGc-153" value="Instantiate" style="endArrow=open;endSize=12;dashed=1;html=1;rounded=0;" edge="1" parent="1" source="R-D8Z9JG-TbI6bDEDyGc-142" target="R-D8Z9JG-TbI6bDEDyGc-129">
          <mxGeometry width="160" relative="1" as="geometry">
            <mxPoint x="270" y="550" as="sourcePoint" />
            <mxPoint x="380" y="485.39" as="targetPoint" />
          </mxGeometry>
        </mxCell>
        <mxCell id="R-D8Z9JG-TbI6bDEDyGc-154" value="Extends" style="endArrow=block;endSize=16;endFill=0;html=1;rounded=0;" edge="1" parent="1" source="R-D8Z9JG-TbI6bDEDyGc-50" target="R-D8Z9JG-TbI6bDEDyGc-65">
          <mxGeometry width="160" relative="1" as="geometry">
            <mxPoint x="800" y="370" as="sourcePoint" />
            <mxPoint x="980" y="510" as="targetPoint" />
          </mxGeometry>
        </mxCell>
        <mxCell id="R-D8Z9JG-TbI6bDEDyGc-155" value="Extends" style="endArrow=block;endSize=16;endFill=0;html=1;rounded=0;" edge="1" parent="1" source="R-D8Z9JG-TbI6bDEDyGc-49" target="R-D8Z9JG-TbI6bDEDyGc-65">
          <mxGeometry width="160" relative="1" as="geometry">
            <mxPoint x="880" y="390" as="sourcePoint" />
            <mxPoint x="999" y="468" as="targetPoint" />
          </mxGeometry>
        </mxCell>
        <mxCell id="R-D8Z9JG-TbI6bDEDyGc-156" value="" style="edgeStyle=orthogonalEdgeStyle;rounded=0;orthogonalLoop=1;jettySize=auto;html=1;endArrow=none;endFill=0;" edge="1" parent="1" source="R-D8Z9JG-TbI6bDEDyGc-190" target="R-D8Z9JG-TbI6bDEDyGc-65">
          <mxGeometry relative="1" as="geometry">
            <mxPoint x="630" y="519" as="sourcePoint" />
          </mxGeometry>
        </mxCell>
        <mxCell id="R-D8Z9JG-TbI6bDEDyGc-157" value="Extends" style="endArrow=block;endSize=16;endFill=0;html=1;rounded=0;" edge="1" parent="1" source="R-D8Z9JG-TbI6bDEDyGc-73" target="R-D8Z9JG-TbI6bDEDyGc-126">
          <mxGeometry width="160" relative="1" as="geometry">
            <mxPoint x="775" y="352" as="sourcePoint" />
            <mxPoint x="780" y="444" as="targetPoint" />
          </mxGeometry>
        </mxCell>
        <mxCell id="R-D8Z9JG-TbI6bDEDyGc-158" value="Extends" style="endArrow=block;endSize=16;endFill=0;html=1;rounded=0;" edge="1" parent="1" source="R-D8Z9JG-TbI6bDEDyGc-77" target="R-D8Z9JG-TbI6bDEDyGc-126">
          <mxGeometry width="160" relative="1" as="geometry">
            <mxPoint x="229" y="122" as="sourcePoint" />
            <mxPoint x="250" y="349" as="targetPoint" />
          </mxGeometry>
        </mxCell>
        <mxCell id="R-D8Z9JG-TbI6bDEDyGc-159" value="Extends" style="endArrow=block;endSize=16;endFill=0;html=1;rounded=0;" edge="1" parent="1" source="R-D8Z9JG-TbI6bDEDyGc-130" target="R-D8Z9JG-TbI6bDEDyGc-126">
          <mxGeometry width="160" relative="1" as="geometry">
            <mxPoint x="239" y="132" as="sourcePoint" />
            <mxPoint x="260" y="359" as="targetPoint" />
          </mxGeometry>
        </mxCell>
        <mxCell id="R-D8Z9JG-TbI6bDEDyGc-160" value="Extends" style="endArrow=block;endSize=16;endFill=0;html=1;rounded=0;" edge="1" parent="1" source="R-D8Z9JG-TbI6bDEDyGc-134" target="R-D8Z9JG-TbI6bDEDyGc-126">
          <mxGeometry width="160" relative="1" as="geometry">
            <mxPoint x="249" y="142" as="sourcePoint" />
            <mxPoint x="270" y="369" as="targetPoint" />
          </mxGeometry>
        </mxCell>
        <mxCell id="R-D8Z9JG-TbI6bDEDyGc-161" value="Instantiate" style="endArrow=open;endSize=12;dashed=1;html=1;rounded=0;" edge="1" parent="1" source="R-D8Z9JG-TbI6bDEDyGc-141" target="R-D8Z9JG-TbI6bDEDyGc-46">
          <mxGeometry width="160" relative="1" as="geometry">
            <mxPoint x="934" y="207" as="sourcePoint" />
            <mxPoint x="780" y="242" as="targetPoint" />
          </mxGeometry>
        </mxCell>
        <mxCell id="R-D8Z9JG-TbI6bDEDyGc-190" value="Library" style="swimlane;fontStyle=1;align=center;verticalAlign=top;childLayout=stackLayout;horizontal=1;startSize=26;horizontalStack=0;resizeParent=1;resizeParentMax=0;resizeLast=0;collapsible=1;marginBottom=0;whiteSpace=wrap;html=1;fillColor=#bac8d3;strokeColor=#23445d;" vertex="1" parent="1">
          <mxGeometry x="413" y="448.5" width="183" height="141" as="geometry" />
        </mxCell>
        <mxCell id="R-D8Z9JG-TbI6bDEDyGc-191" value="+ ArrayList teachers:Teacher&lt;br style=&quot;border-color: var(--border-color);&quot;&gt;+ ArrayList students:Student&lt;br style=&quot;border-color: var(--border-color);&quot;&gt;+ ArrayList books:AbstractBook" style="text;strokeColor=none;fillColor=none;align=left;verticalAlign=top;spacingLeft=4;spacingRight=4;overflow=hidden;rotatable=0;points=[[0,0.5],[1,0.5]];portConstraint=eastwest;whiteSpace=wrap;html=1;" vertex="1" parent="R-D8Z9JG-TbI6bDEDyGc-190">
          <mxGeometry y="26" width="183" height="53" as="geometry" />
        </mxCell>
        <mxCell id="R-D8Z9JG-TbI6bDEDyGc-192" value="" style="line;strokeWidth=1;fillColor=none;align=left;verticalAlign=middle;spacingTop=-1;spacingLeft=3;spacingRight=3;rotatable=0;labelPosition=right;points=[];portConstraint=eastwest;strokeColor=inherit;" vertex="1" parent="R-D8Z9JG-TbI6bDEDyGc-190">
          <mxGeometry y="79" width="183" height="8" as="geometry" />
        </mxCell>
        <mxCell id="R-D8Z9JG-TbI6bDEDyGc-193" value="+ fillTeachers()&lt;br&gt;+ filStudents()&lt;br&gt;+ fillBooks()" style="text;strokeColor=none;fillColor=none;align=left;verticalAlign=top;spacingLeft=4;spacingRight=4;overflow=hidden;rotatable=0;points=[[0,0.5],[1,0.5]];portConstraint=eastwest;whiteSpace=wrap;html=1;" vertex="1" parent="R-D8Z9JG-TbI6bDEDyGc-190">
          <mxGeometry y="87" width="183" height="54" as="geometry" />
        </mxCell>
      </root>
    </mxGraphModel>
  </diagram>
</mxfile>
